<?xml version="1.0" encoding="UTF-8"?><svg id="Layer_1" xmlns="http://www.w3.org/2000/svg" viewBox="0 0 792 500"><defs><style>.cls-1{fill:#fff;}.cls-2{fill:#90ced3;}.cls-3{fill:#7d5fa9;}.cls-4{fill:#cecbe6;}.cls-5{fill:#abdee5;}.cls-6{fill:#60b3be;}.cls-7{fill:#469fa5;}.cls-8{fill:#52439b;}</style></defs><path class="cls-4" d="M0,0V500H792V0H0Z"/><g><path class="cls-7" d="M641.29,446.51s-100.92-116.32-348.1-40.63S0,446.51,0,446.51v53.49H688.44l-47.15-53.49Z"/><polygon class="cls-8" points="585.38 500 189.78 500 214.02 478.74 377.22 436.08 480.76 436.08 564.96 463.31 585.38 500"/><path class="cls-2" d="M657.8,500s-118.07-147.98-345.02-67.27C85.83,513.43,0,500,0,500H189.78s197.96-79.65,295.35-51.19c87.73,25.64,100.24,51.19,100.24,51.19h72.42Z"/></g><path class="cls-6" d="M792,106.98s-79.45,46.13-92.39,150.97c-11.34,91.84,11.35,134.95-58.32,188.56-15.18,11.68-31.92,21.13-49.56,28.57-10.53,4.44-25.71,12.23-41.19,24.92h107.26s60.72-50.01,60.72-154.32,73.48-173.98,73.48-173.98V106.98Z"/><polygon class="cls-3" points="792 171.69 741.46 250 726.23 371.53 709.62 499.69 792 500 792 171.69"/><path class="cls-5" d="M792,153.77s-60.49,48.54-72.44,135.75-8.94,128.47-43.79,164.58-74.27,44.82-74.27,44.82l108.12,.78s65.5-33.41,41.8-139.87,40.58-167.24,40.58-167.24v-38.82Z"/><path class="cls-1" d="M716.89,175.17l7.76-4.08c2.55-1.34,5.54,.83,5.05,3.67l-1.48,8.64c-.19,1.13,.18,2.28,1,3.08l6.28,6.12c2.07,2.01,.93,5.52-1.93,5.94l-8.67,1.26c-1.13,.16-2.11,.88-2.62,1.9l-3.88,7.86c-1.28,2.59-4.97,2.59-6.25,0l-3.88-7.86c-.51-1.03-1.49-1.74-2.62-1.9l-8.67-1.26c-2.86-.42-4-3.92-1.93-5.94l6.28-6.12c.82-.8,1.2-1.95,1-3.08l-1.48-8.64c-.49-2.84,2.5-5.01,5.05-3.67l7.76,4.08c1.01,.53,2.23,.53,3.24,0Z"/><path class="cls-1" d="M47.95,347.43l2.32-.2c.77-.07,1.27,.77,.86,1.42l-1.26,1.97c-.16,.26-.19,.58-.07,.86l.91,2.15c.3,.71-.34,1.45-1.09,1.26l-2.26-.59c-.3-.08-.61,0-.84,.2l-1.76,1.53c-.58,.5-1.49,.12-1.53-.64l-.14-2.33c-.02-.3-.19-.58-.45-.74l-2-1.2c-.66-.4-.58-1.38,.14-1.66l2.17-.85c.28-.11,.5-.36,.56-.65l.53-2.27c.17-.75,1.13-.97,1.62-.38l1.48,1.8c.19,.24,.49,.36,.8,.33Z"/><path class="cls-1" d="M690.65,215.96l2.32-.2c.77-.07,1.27,.77,.86,1.42l-1.26,1.97c-.16,.26-.19,.58-.07,.86l.91,2.15c.3,.71-.34,1.45-1.09,1.26l-2.26-.59c-.3-.08-.61,0-.84,.2l-1.76,1.53c-.58,.5-1.49,.12-1.53-.64l-.14-2.33c-.02-.3-.19-.58-.45-.74l-2-1.2c-.66-.4-.58-1.38,.14-1.66l2.17-.85c.28-.11,.5-.36,.56-.65l.53-2.27c.17-.75,1.13-.97,1.62-.38l1.48,1.8c.19,.24,.49,.36,.8,.33Z"/><path class="cls-1" d="M729.2,267.6l4.18-.36c1.38-.12,2.29,1.39,1.55,2.56l-2.26,3.54c-.3,.46-.34,1.04-.13,1.55l1.63,3.86c.54,1.27-.62,2.61-1.95,2.26l-4.06-1.05c-.53-.14-1.1,0-1.51,.35l-3.17,2.75c-1.04,.9-2.67,.22-2.76-1.16l-.25-4.19c-.03-.55-.33-1.04-.8-1.33l-3.59-2.17c-1.18-.71-1.03-2.47,.25-2.98l3.9-1.53c.51-.2,.89-.64,1.01-1.17l.95-4.09c.31-1.35,2.03-1.75,2.91-.68l2.67,3.24c.35,.42,.88,.65,1.43,.6Z"/><path class="cls-1" d="M93.46,291.1l5.12-.44c1.69-.14,2.81,1.71,1.9,3.13l-2.77,4.33c-.36,.57-.42,1.28-.16,1.89l2,4.74c.66,1.56-.76,3.2-2.39,2.77l-4.98-1.29c-.65-.17-1.34,0-1.85,.43l-3.89,3.37c-1.28,1.11-3.28,.27-3.38-1.42l-.31-5.13c-.04-.67-.41-1.28-.98-1.63l-4.4-2.65c-1.45-.87-1.27-3.03,.31-3.65l4.79-1.88c.63-.25,1.09-.78,1.24-1.44l1.16-5.01c.38-1.65,2.49-2.14,3.57-.84l3.27,3.97c.43,.52,1.08,.79,1.75,.74Z"/></svg>